<svg version="1.1" xmlns="http://www.w3.org/2000/svg" xmlns:xlink="http://www.w3.org/1999/xlink" preserveAspectRatio="xMidYMid meet" viewBox="0 0 332 332" width="332" height="332"><defs><path d="M281.59 281.44C217.77 345.27 114.14 345.27 50.31 281.44C-13.51 217.62 -13.51 113.98 50.31 50.16C114.14 -13.67 217.77 -13.67 281.59 50.16C345.42 113.98 345.42 217.62 281.59 281.44Z" id="d5ykPv3hm"></path><path d="M55.98 187.48L77.44 102.03" id="b4TfMZxBxl"></path><path d="M189.27 57.97L104.05 75.42" id="o1vOyg6KkE"></path><path d="M124.44 212.39L87.86 207.11" id="acsJGouT7F"></path><path d="M253.29 177.53L232.36 156.59" id="aTnaMOPm"></path><path d="M161.35 179.13L88.36 194.67" id="aO1rqjI3r"></path><path d="M217.85 84.63C209.92 92.56 197.05 92.56 189.12 84.63C181.19 76.7 181.19 63.83 189.12 55.9C197.05 47.98 209.92 47.98 217.85 55.9C225.77 63.83 225.77 76.7 217.85 84.63Z" id="bHRtG5FJh"></path><path d="M83.64 215.15C75.72 223.08 62.84 223.08 54.92 215.15C46.99 207.22 46.99 194.35 54.92 186.42C62.84 178.5 75.72 178.5 83.64 186.42C91.57 194.35 91.57 207.22 83.64 215.15Z" id="djpjLvSdN"></path><path d="M102.72 103.09C94.79 111.02 81.92 111.02 73.99 103.09C66.07 95.16 66.07 82.29 73.99 74.36C81.92 66.44 94.79 66.44 102.72 74.36C110.65 82.29 110.65 95.16 102.72 103.09Z" id="cezjG8MAm"></path><path d="M232.36 156.59C224.43 164.52 211.56 164.52 203.63 156.59C195.7 148.67 195.7 135.79 203.63 127.87C211.56 119.94 224.43 119.94 232.36 127.87C240.28 135.79 240.28 148.67 232.36 156.59Z" id="f6MzzOxnz"></path><path d="M194.42 194.53C186.5 202.45 173.62 202.45 165.7 194.53C157.77 186.6 157.77 173.73 165.7 165.8C173.62 157.87 186.5 157.87 194.42 165.8C202.35 173.73 202.35 186.6 194.42 194.53Z" id="a7ExB1DaoQ"></path><path d="M206.89 273.98C198.96 281.91 186.09 281.91 178.16 273.98C170.24 266.06 170.24 253.18 178.16 245.26C186.09 237.33 198.96 237.33 206.89 245.26C214.82 253.18 214.82 266.06 206.89 273.98Z" id="a4Q35skKak"></path><path d="M281.26 205.5C273.34 213.43 260.47 213.43 252.54 205.5C244.61 197.57 244.61 184.7 252.54 176.77C260.47 168.85 273.34 168.85 281.26 176.77C289.19 184.7 289.19 197.57 281.26 205.5Z" id="bsqGctpl"></path><path d="M200.49 90.35L181.05 159.44" id="ddAFu2mRQ"></path><path d="M214.76 122.07L212.72 88.73" id="c1WbDRifY"></path><path d="M187.51 240.48L178.34 200" id="azUGC9kdZ"></path><path d="M157.45 231.5C149.52 239.43 136.65 239.43 128.72 231.5C120.79 223.57 120.79 210.7 128.72 202.78C136.65 194.85 149.52 194.85 157.45 202.78C165.37 210.7 165.37 223.57 157.45 231.5Z" id="b2kJHNmGO"></path></defs><g><g><g><g><use xlink:href="#d5ykPv3hm" opacity="0.36" fill="#e7e1da" fill-opacity="1"></use><g><use xlink:href="#d5ykPv3hm" opacity="0.36" fill-opacity="0" stroke="#03210c" stroke-width="4" stroke-opacity="1"></use></g></g><g><g><use xlink:href="#b4TfMZxBxl" opacity="1" fill-opacity="0" stroke="#03210c" stroke-width="3" stroke-opacity="1"></use></g></g><g><g><use xlink:href="#o1vOyg6KkE" opacity="1" fill-opacity="0" stroke="#03210c" stroke-width="3" stroke-opacity="1"></use></g></g><g><g><use xlink:href="#acsJGouT7F" opacity="1" fill-opacity="0" stroke="#03210c" stroke-width="3" stroke-opacity="1"></use></g></g><g><g><use xlink:href="#aTnaMOPm" opacity="1" fill-opacity="0" stroke="#03210c" stroke-width="4" stroke-opacity="1"></use></g></g><g><g><use xlink:href="#aO1rqjI3r" opacity="1" fill-opacity="0" stroke="#03210c" stroke-width="3" stroke-opacity="1"></use></g></g><g><use xlink:href="#bHRtG5FJh" opacity="1" fill="#cf8a3b" fill-opacity="1"></use></g><g><use xlink:href="#djpjLvSdN" opacity="1" fill="#cf8a3b" fill-opacity="1"></use></g><g><use xlink:href="#cezjG8MAm" opacity="1" fill="#006aeb" fill-opacity="1"></use></g><g><use xlink:href="#f6MzzOxnz" opacity="1" fill="#ffba49" fill-opacity="1"></use></g><g><use xlink:href="#a7ExB1DaoQ" opacity="1" fill="#ffba49" fill-opacity="1"></use></g><g><use xlink:href="#a4Q35skKak" opacity="1" fill="#0fa13b" fill-opacity="1"></use></g><g><use xlink:href="#bsqGctpl" opacity="1" fill="#0fa13b" fill-opacity="1"></use></g><g><g><use xlink:href="#ddAFu2mRQ" opacity="1" fill-opacity="0" stroke="#03210c" stroke-width="3" stroke-opacity="1"></use></g></g><g><g><use xlink:href="#c1WbDRifY" opacity="1" fill-opacity="0" stroke="#03210c" stroke-width="3" stroke-opacity="1"></use></g></g><g><g><use xlink:href="#azUGC9kdZ" opacity="1" fill-opacity="0" stroke="#03210c" stroke-width="3" stroke-opacity="1"></use></g></g><g><use xlink:href="#b2kJHNmGO" opacity="0.38" fill="#ffba49" fill-opacity="1"></use></g></g></g></g></svg>
